<svg width="150" height="150" viewBox="0 0 195 195" fill="none" xmlns="http://www.w3.org/2000/svg">
<g clip-path="url(#clip0)">
<path d="M36.5746 71.6659C36.5746 71.6659 30.1625 79.7988 23.2808 80.0412C20.3909 80.1185 17.5977 81.4537 15.3206 83.8463C14.2443 84.9899 13.2481 86.2636 12.3447 87.6514" stroke="#535461" stroke-width="2" stroke-miterlimit="10"/>
<path d="M8.00509 87.8509C8.92942 87.2197 12.4577 87.6388 12.4577 87.6388C12.4577 87.6388 10.6278 91.7166 9.70345 92.3479C9.48208 92.5242 9.2361 92.6376 8.98079 92.6809C8.72547 92.7243 8.46625 92.6966 8.21921 92.5998C7.97216 92.5029 7.74256 92.3388 7.54464 92.1178C7.34672 91.8967 7.1847 91.6234 7.06864 91.3147C6.95257 91.006 6.88492 90.6685 6.8699 90.3233C6.85488 89.978 6.8928 89.6322 6.98131 89.3075C7.06982 88.9827 7.20702 88.6858 7.38443 88.4353C7.56183 88.1847 7.77564 87.9858 8.0126 87.8509H8.00509Z" fill="#00BFA6"/>
<path d="M11.7197 80.6421C12.7511 80.7885 15.5429 83.7175 15.5429 83.7175C15.5429 83.7175 12.3491 85.8031 11.3271 85.6592C10.8489 85.5621 10.417 85.2209 10.1213 84.7067C9.82554 84.1925 9.68873 83.5448 9.73932 82.8984C9.7899 82.252 10.024 81.6568 10.3929 81.2365C10.7617 80.8162 11.237 80.6033 11.7197 80.6421V80.6421Z" fill="#00BFA6"/>
<path d="M20.527 74.8322C21.3612 75.6579 22.6725 80.0816 22.6725 80.0816C22.6725 80.0816 19.1386 79.7205 18.3045 78.8974C17.9285 78.4891 17.6841 77.9018 17.622 77.2576C17.5599 76.6134 17.685 75.9618 17.9712 75.4383C18.2574 74.9148 18.6827 74.5597 19.1587 74.4468C19.6347 74.3339 20.1248 74.472 20.527 74.8322V74.8322Z" fill="#00BFA6"/>
<path d="M27.9276 72.4562C28.8538 73.0798 30.7024 77.1425 30.7024 77.1425C30.7024 77.1425 27.1742 77.5894 26.248 76.9657C26.0143 76.8286 25.8038 76.6289 25.6294 76.379C25.455 76.129 25.3202 75.8339 25.2334 75.5116C25.1465 75.1894 25.1094 74.8468 25.1243 74.5047C25.1391 74.1625 25.2057 73.828 25.3198 73.5216C25.434 73.2151 25.5933 72.9431 25.7882 72.7221C25.9831 72.501 26.2094 72.3357 26.4534 72.236C26.6974 72.1363 26.9539 72.1044 27.2073 72.1423C27.4608 72.1801 27.7058 72.2869 27.9276 72.4562V72.4562Z" fill="#00BFA6"/>
<path d="M17.5061 88.3155C17.8142 86.9848 16.9125 82.3793 16.9125 82.3793C16.9125 82.3793 14.2296 85.49 13.9215 86.8207C13.8347 87.1418 13.7973 87.4834 13.8116 87.8245C13.8258 88.1657 13.8914 88.4994 14.0045 88.8055C14.1175 89.1116 14.2756 89.3836 14.4692 89.6052C14.6627 89.8268 14.8878 89.9932 15.1306 90.0945C15.3734 90.1957 15.629 90.2297 15.8819 90.1943C16.1348 90.1589 16.3797 90.0549 16.6018 89.8886C16.8239 89.7223 17.0185 89.4971 17.174 89.2267C17.3294 88.9563 17.4424 88.6463 17.5061 88.3155V88.3155Z" fill="#00BFA6"/>
<path d="M26.1345 85.3789C26.1345 83.9852 24.2464 79.9553 24.2464 79.9553C24.2464 79.9553 22.379 83.9953 22.3809 85.3941C22.3824 86.0637 22.5817 86.7052 22.9351 87.1773C23.2885 87.6494 23.7669 87.9135 24.2652 87.9115C24.7635 87.9094 25.2407 87.6415 25.592 87.1666C25.9433 86.6916 26.1398 86.0486 26.1383 85.3789H26.1345Z" fill="#00BFA6"/>
<path d="M34.2302 80.9955C34.403 79.622 33.0504 75.2209 33.0504 75.2209C33.0504 75.2209 30.7001 78.7862 30.5291 80.1598C30.4714 80.8042 30.6005 81.4537 30.8897 81.9736C31.1789 82.4934 31.6059 82.8436 32.0821 82.9515C32.5584 83.0593 33.0472 82.9166 33.4472 82.5528C33.8472 82.1891 34.1276 81.6323 34.2302 80.9981V80.9955Z" fill="#00BFA6"/>
<path d="M44.9068 50.128C44.9068 50.128 37.1834 44.4266 34.8876 35.6928C33.9444 32.0202 32.14 28.858 29.7455 26.6812C28.6029 25.6593 27.3929 24.7803 26.1309 24.0552" stroke="#535461" stroke-width="2" stroke-miterlimit="10"/>
<path d="M24.6658 18.5635C25.3966 19.5507 26.1838 24.1941 26.1838 24.1941C26.1838 24.1941 22.7344 23.1084 22.0036 22.1186C21.6809 21.6369 21.5083 21.0069 21.5217 20.359C21.5351 19.711 21.7334 19.0948 22.0755 18.6379C22.4176 18.181 22.8774 17.9185 23.3596 17.9046C23.8417 17.8908 24.3094 18.1267 24.6658 18.5635V18.5635Z" fill="#00BFA6"/>
<path d="M30.912 21.096C31.1262 22.4595 29.9107 26.9312 29.9107 26.9312C29.9107 26.9312 27.4552 23.4998 27.241 22.1338C27.1774 21.8034 27.1643 21.4592 27.2025 21.1219C27.2407 20.7845 27.3294 20.4611 27.4632 20.1711C27.5969 19.8811 27.7731 19.6305 27.9809 19.4345C28.1888 19.2386 28.424 19.1013 28.6725 19.0309C28.9209 18.9605 29.1774 18.9586 29.4264 19.0251C29.6754 19.0917 29.9118 19.2254 30.1213 19.4182C30.3308 19.611 30.509 19.8588 30.6452 20.1468C30.7815 20.4347 30.8729 20.7568 30.9139 21.0935L30.912 21.096Z" fill="#00BFA6"/>
<path d="M37.7321 30.5873C37.4052 31.9079 34.6754 34.9454 34.6754 34.9454C34.6754 34.9454 33.845 30.3172 34.1719 28.9941C34.3291 28.3579 34.6679 27.8317 35.1138 27.5313C35.5597 27.2308 36.0761 27.1807 36.5495 27.392C37.0228 27.6033 37.4143 28.0586 37.6379 28.6579C37.8614 29.2571 37.8987 29.9512 37.7415 30.5873H37.7321Z" fill="#00BFA6"/>
<path d="M41.6928 39.3111C41.5369 40.6872 39.2279 44.3005 39.2279 44.3005C39.2279 44.3005 37.8264 39.9272 37.9823 38.5511C38.0083 38.211 38.0854 37.8816 38.2089 37.5827C38.3325 37.2839 38.4999 37.0219 38.701 36.8126C38.9022 36.6033 39.1328 36.451 39.379 36.3651C39.6252 36.2792 39.8819 36.2614 40.1334 36.3127C40.3849 36.364 40.626 36.4835 40.8421 36.6638C41.0582 36.8441 41.2448 37.0815 41.3907 37.3616C41.5365 37.6418 41.6384 37.9588 41.6904 38.2935C41.7423 38.6281 41.7431 38.9735 41.6928 39.3086V39.3111Z" fill="#00BFA6"/>
<path d="M27.2564 30.8575C28.2935 30.8424 31.2769 28.2719 31.2769 28.2719C31.2769 28.2719 28.2502 25.7975 27.2132 25.8126C26.7149 25.8203 26.2393 26.0937 25.8911 26.5727C25.5428 27.0517 25.3504 27.697 25.3561 28.3666C25.3618 29.0363 25.5652 29.6755 25.9216 30.1435C26.278 30.6116 26.7581 30.8703 27.2564 30.8625V30.8575Z" fill="#00BFA6"/>
<path d="M31.9835 40.9927C32.968 40.5609 35.2431 36.9098 35.2431 36.9098C35.2431 36.9098 31.8032 35.766 30.8187 36.1978C30.5758 36.291 30.3493 36.449 30.1529 36.6626C29.9565 36.8761 29.7941 37.1406 29.6755 37.4404C29.5569 37.7402 29.4845 38.0691 29.4626 38.4073C29.4408 38.7456 29.4699 39.0863 29.5483 39.4091C29.6266 39.7319 29.7526 40.0301 29.9187 40.2859C30.0848 40.5418 30.2876 40.75 30.515 40.898C30.7423 41.0461 30.9895 41.131 31.2419 41.1477C31.4942 41.1644 31.7465 41.1126 31.9835 40.9952V40.9927Z" fill="#00BFA6"/>
<path d="M37.5821 49.9967C38.6079 49.7947 41.3095 46.7143 41.3095 46.7143C41.3095 46.7143 38.063 44.8054 37.0391 45.0074C36.787 45.0423 36.5427 45.1455 36.3209 45.3107C36.0992 45.4758 35.9047 45.6996 35.749 45.9685C35.5933 46.2374 35.4797 46.5459 35.4151 46.8753C35.3505 47.2048 35.3361 47.5484 35.3729 47.8855C35.4097 48.2226 35.4969 48.5462 35.6292 48.8368C35.7615 49.1275 35.9362 49.3791 36.1428 49.5766C36.3494 49.7741 36.5835 49.9133 36.8312 49.986C37.0789 50.0586 37.3349 50.0631 37.584 49.9992L37.5821 49.9967Z" fill="#00BFA6"/>
<path opacity="0.1" d="M19.6135 19.5244C18.3998 20.2011 17.1542 21.0696 16.4873 22.5922C15.7809 24.2006 15.8654 26.1978 15.9969 28.0587C17.143 44.1983 20.1621 61.3629 14.9486 75.9824C12.418 83.075 8.18522 88.7587 4.81856 95.1999C1.45189 101.641 -1.09002 109.683 0.473072 117.26C2.38185 126.519 9.50597 131.653 14.308 138.778C17.4511 143.437 19.6548 149.098 22.5875 153.999C25.5202 158.9 29.5388 163.217 34.2205 163.505C40.9539 163.922 46.4322 156.107 53.0341 154.297C59.7975 152.443 66.6078 157.16 72.0918 162.806C77.5758 168.451 82.5638 175.292 88.9533 178.816C96.0098 182.712 103.964 182.117 111.393 184.457C118.156 186.591 124.382 191.128 131.097 193.547C137.811 195.966 145.681 195.819 150.884 189.641C157.664 181.561 157.13 167.169 161.461 156.481C165.483 146.55 173.357 140.621 178.657 131.842C188.193 116.041 187.881 91.8897 179.784 74.7048C171.687 57.5199 157.019 47.1146 142.022 44.4053C135.258 43.1858 128.294 43.3524 121.792 40.5775C104.387 33.1541 94.0296 6.55619 76.2607 1.02148C64.9658 -2.49074 53.9809 3.59188 44.36 11.0784C36.0091 17.5776 28.3045 14.679 19.6135 19.5244Z" fill="#144A47"/>
<g opacity="0.1">
<path opacity="0.1" d="M71.2754 76.6538L69.5322 81.1274L96.2479 99.9301L97.991 95.4565L71.2754 76.6538Z" fill="black"/>
</g>
<path d="M98.0581 188.465C135.619 188.465 166.068 147.543 166.068 97.0619C166.068 46.5812 135.619 5.65845 98.0581 5.65845C60.4973 5.65845 30.0483 46.5812 30.0483 97.0619C30.0483 147.543 60.4973 188.465 98.0581 188.465Z" fill="url(#paint0_linear)"/>
<path d="M98.0578 186.95C134.996 186.95 164.94 146.706 164.94 97.0619C164.94 47.4178 134.996 7.17334 98.0578 7.17334C61.1196 7.17334 31.1753 47.4178 31.1753 97.0619C31.1753 146.706 61.1196 186.95 98.0578 186.95Z" fill="#144A47"/>
<path d="M98.058 168.518C127.422 168.518 151.226 136.526 151.226 97.062C151.226 57.5977 127.422 25.6057 98.058 25.6057C68.6942 25.6057 44.8901 57.5977 44.8901 97.062C44.8901 136.526 68.6942 168.518 98.058 168.518Z" fill="#DDE1EC"/>
<path opacity="0.3" d="M99.5606 38.2305H96.5547V101.354H99.5606V38.2305Z" fill="#535461"/>
<path opacity="0.1" d="M143.711 95.5469H101.252V100.597H143.711V95.5469Z" fill="black"/>
<path opacity="0.1" d="M98.0581 105.647C101.171 105.647 103.694 102.255 103.694 98.0718C103.694 93.8883 101.171 90.4969 98.0581 90.4969C94.9453 90.4969 92.4219 93.8883 92.4219 98.0718C92.4219 102.255 94.9453 105.647 98.0581 105.647Z" fill="black"/>
<path d="M143.711 94.5369H101.252V99.5868H143.711V94.5369Z" fill="#535461"/>
<path d="M98.0033 94.4523L71.2876 75.6495L69.5445 80.1232L96.2602 98.9259L98.0033 94.4523Z" fill="#535461"/>
<path d="M98.058 104.637C101.171 104.637 103.694 101.245 103.694 97.0619C103.694 92.8784 101.171 89.487 98.058 89.487C94.9453 89.487 92.4219 92.8784 92.4219 97.0619C92.4219 101.245 94.9453 104.637 98.058 104.637Z" fill="#535461"/>
<g opacity="0.1">
<path opacity="0.1" d="M49.0195 105.647C49.0195 66.1817 72.8229 34.1905 102.187 34.1905C110.429 34.1807 118.559 36.7502 125.934 41.6955C133.309 46.6408 139.726 53.8261 144.676 62.6821C135.629 40.5837 118.156 25.6057 98.0541 25.6057C68.6897 25.6057 44.8863 57.5969 44.8863 97.062C44.869 112.566 48.6208 127.652 55.5706 140.027C51.2606 129.495 49.0068 117.667 49.0195 105.647V105.647Z" fill="black"/>
</g>
</g>
<defs>
<linearGradient id="paint0_linear" x1="98.0581" y1="188.465" x2="98.0581" y2="5.65845" gradientUnits="userSpaceOnUse">
<stop stop-color="#808080" stop-opacity="0.25"/>
<stop offset="0.54" stop-color="#808080" stop-opacity="0.12"/>
<stop offset="1" stop-color="#808080" stop-opacity="0.1"/>
</linearGradient>
<clipPath id="clip0">
<rect width="195" height="195" fill="white"/>
</clipPath>
</defs>
</svg>
